# This file uses centimeters as units for non-parametric coordinates.

mtllib paper_plane.mtl
v -2.841678 5.323296 4.752464
v -0.593524 6.439068 4.500000
v 0.000000 4.801253 4.388325
v 0.593524 6.439068 4.500000
v 2.841678 5.323296 4.752464
v -2.841678 5.423296 4.752464
v -0.556134 6.539068 4.500000
v 0.000000 4.929998 4.388325
v 0.556134 6.539068 4.500000
v 2.841678 5.423296 4.752464
v 0.000000 5.000000 -4.500000
vt 0.375000 0.000000
vt 0.437500 0.000000
vt 0.500000 0.000000
vt 0.562500 0.000000
vt 0.625000 0.000000
vt 0.375000 0.250000
vt 0.437500 0.250000
vt 0.500000 0.250000
vt 0.562500 0.250000
vt 0.625000 0.250000
vt 0.500000 0.500000
vt 0.500000 0.750000
vt 0.375000 1.000000
vt 0.437500 1.000000
vt 0.500000 1.000000
vt 0.562500 1.000000
vt 0.625000 1.000000
vt 0.875000 0.125000
vt 0.125000 0.125000
vn 0.121713 -0.022755 0.992304
vn 0.124950 -0.022360 0.991911
vn 0.124697 -0.022391 0.991942
vn 0.121713 -0.022755 0.992305
vn 0.000001 -0.021721 0.999764
vn 0.000001 -0.021721 0.999764
vn -0.124951 -0.022360 0.991911
vn -0.124698 -0.022391 0.991942
vn -0.121715 -0.022755 0.992304
vn -0.121715 -0.022755 0.992304
vn -0.447499 0.876485 -0.177538
vn 0.043267 0.985209 -0.165805
vn 0.000000 0.985539 -0.169452
vn 0.000000 0.999969 0.007875
vn -0.043267 0.985209 -0.165805
vn 0.447499 0.876485 -0.177538
vn 0.000000 -0.987569 0.157185
vn -0.054399 -0.986548 0.154158
vn 0.453342 -0.875012 0.169808
vn 0.000000 -0.999750 -0.022355
vn 0.054399 -0.986548 0.154158
vn -0.453342 -0.875012 0.169808
vn 0.955931 0.000000 -0.293592
vn 0.955931 0.000000 -0.293592
vn 0.955931 0.000000 -0.293592
vn -0.955931 0.000000 -0.293592
vn -0.955931 0.000000 -0.293592
vn -0.955931 0.000000 -0.293592
s 1
usemtl blinn1SG
f 1/1/1 2/2/2 7/7/3 6/6/4
f 2/2/2 3/3/5 8/8/6 7/7/3
f 3/3/5 4/4/7 9/9/8 8/8/6
f 4/4/7 5/5/9 10/10/10 9/9/8
s 2
f 6/6/11 7/7/12 11/11/13
f 7/7/12 8/8/14 11/11/13
f 8/8/14 9/9/15 11/11/13
f 9/9/15 10/10/16 11/11/13
s 3
f 11/12/17 2/14/18 1/13/19
f 11/12/17 3/15/20 2/14/18
f 11/12/17 4/16/21 3/15/20
f 11/12/17 5/17/22 4/16/21
s off
f 5/5/23 11/18/24 10/10/25
f 11/19/26 1/1/27 6/6/28
